<svg width="50" height="50" viewBox="0 0 50 50" fill="none" xmlns="http://www.w3.org/2000/svg">
<g clip-path="url(#clip0_1_2)">
<path d="M47.1883 19.0396C48.4321 15.4191 47.2222 12.9796 43.5587 11.7211C40.8218 10.7808 37.5999 10.8666 33.893 11.9784C28.0691 13.7122 23.3432 17.1242 19.7151 22.2144C18.5107 23.8968 17.6975 25.3522 17.2755 26.5805C16.861 27.7873 16.5901 28.646 16.4629 29.1564C16.3357 29.6669 16.2479 30.2029 16.1996 30.7646C16.0503 32.1107 16.0384 33.0222 16.1637 33.4989C16.3106 33.9831 16.3834 34.2972 16.3821 34.4413C16.4097 34.5713 16.3333 34.6534 16.1528 34.6878C15.7851 34.7061 15.5214 34.0011 15.3615 32.5728C15.1766 30.7264 15.4174 28.8334 16.0837 26.8939C16.7574 24.9328 17.6968 23.075 18.9018 21.3206C20.1069 19.5662 21.476 18.0006 23.0091 16.6239C24.5421 15.2472 26.1995 14.0697 27.9811 13.0916C29.7628 12.1135 31.5818 11.3772 33.4383 10.8825C37.3539 9.79427 40.9388 9.80909 44.1929 10.927C46.0677 11.5711 47.4232 12.6752 48.2591 14.2394C49.2231 15.9921 49.3238 17.9782 48.5613 20.1979C47.8061 22.396 46.6233 24.4713 45.0129 26.4238C43.4099 28.3548 41.5055 30.146 39.2998 31.7976C37.094 33.4492 34.663 34.915 32.0066 36.195C29.3577 37.4534 26.6394 38.4229 23.8516 39.1036C17.763 40.6259 12.3589 40.5764 7.63945 38.9551C3.48025 37.5262 1.31509 34.7465 1.14395 30.6158C1.07029 29.2172 1.3481 27.602 1.97739 25.7702C2.60668 23.9385 3.58209 22.081 4.90363 20.198C6.24672 18.3223 7.81945 16.5496 9.62184 14.8799C11.4458 13.2176 13.4559 11.6795 15.6523 10.2656C17.8702 8.85917 20.202 7.61227 22.6476 6.52495C25.0932 5.43762 27.6055 4.54187 30.1845 3.83768C32.7924 3.11935 35.3839 2.62425 37.9589 2.35239C43.4336 1.77562 48.3259 2.22757 52.636 3.70825C56.9891 5.20374 59.2667 7.51611 59.4686 10.6454C59.5321 11.5827 59.4416 12.407 59.1973 13.1182C58.9604 13.8078 58.71 14.3964 58.4461 14.884C58.1897 15.35 57.9116 15.8086 57.6121 16.2599C56.7214 17.52 56.0299 18.2703 55.5377 18.5108C55.0745 18.7371 54.7674 18.8244 54.6166 18.7725C54.4873 18.7281 54.4485 18.6305 54.5003 18.4796C54.5596 18.3072 54.7451 18.118 55.0568 17.9119C55.8109 17.3999 56.463 16.6241 57.0129 15.5842C57.5919 14.5302 57.9961 13.6692 58.2256 13.0012C58.4625 12.3116 58.5452 11.5449 58.4737 10.7011C58.4237 9.86476 58.1572 9.06245 57.6742 8.29419C56.651 6.7139 55.008 5.53508 52.7453 4.75773C50.4825 3.98037 48.2521 3.59964 46.0541 3.61554C43.8562 3.63143 41.5478 3.89853 39.129 4.41683C36.7103 4.93512 34.2282 5.67262 31.683 6.62933C29.1377 7.58603 26.6342 8.70165 24.1725 9.97618C21.7397 11.2366 19.3958 12.6239 17.1409 14.1381C14.9075 15.6597 12.8718 17.2372 11.0337 18.8706C7.13198 22.373 4.63328 25.7189 3.53757 28.9083C2.42706 32.1409 3.03024 34.7333 5.3471 36.6858C6.11221 37.3341 7.28134 37.9285 8.85451 38.469C10.4277 39.0094 12.4506 39.2225 14.9233 39.1082C17.396 38.994 19.9508 38.5706 22.5877 37.8381C25.2462 37.1131 27.8783 36.1139 30.4842 34.8407C33.1115 33.5749 35.5389 32.1199 37.7662 30.4757C42.6558 26.9031 45.7965 23.091 47.1883 19.0396Z" fill="#d8f3dc"/>
<path d="M6.97656 39.8281L10.1016 38.7344C10.2578 39.8281 10.6745 40.7266 11.3516 41.4297C12.0547 42.1328 12.7188 42.5625 13.3438 42.7188L14.2422 42.9531V46.1172C11.9505 46.1172 10.0234 45.1406 8.46094 43.1875C7.4974 41.9635 7.0026 40.8438 6.97656 39.8281ZM7.28906 26.0391C7.28906 23.2266 8.5 21.1172 10.9219 19.7109C12.1198 19.0078 13.2266 18.6562 14.2422 18.6562V21.8594C13.3307 21.9635 12.4714 22.4453 11.6641 23.3047C10.9349 24.112 10.5703 25.0365 10.5703 26.0781C10.5703 27.6667 11.7161 28.8646 14.0078 29.6719C14.5807 29.8542 15.4531 30.1016 16.625 30.4141C17.849 30.7526 18.7083 31.013 19.2031 31.1953C21.5469 32.1589 23.0443 33.474 23.6953 35.1406C24.0339 35.974 24.2031 36.9115 24.2031 37.9531C24.2031 40.2188 23.3307 42.1849 21.5859 43.8516C19.9974 45.362 18.2005 46.1172 16.1953 46.1172V42.9531C17.263 42.901 18.2917 42.3932 19.2812 41.4297C20.2708 40.4141 20.7786 39.2552 20.8047 37.9531C20.8047 36.1302 19.5417 34.8021 17.0156 33.9688C16.4688 33.7865 15.6354 33.5651 14.5156 33.3047C13.3177 33.0182 12.5104 32.7839 12.0938 32.6016C9.88021 31.6901 8.46094 30.4922 7.83594 29.0078C7.47135 28.1484 7.28906 27.1589 7.28906 26.0391ZM16.1953 21.8594V18.6562C18.4609 18.6562 20.349 19.6589 21.8594 21.6641C22.6146 22.6797 23.0312 23.5911 23.1094 24.3984L19.9453 25.4531C19.5807 23.6302 18.5391 22.4714 16.8203 21.9766C16.4036 21.8984 16.1953 21.8594 16.1953 21.8594Z" fill="#d8f3dc"/>
<path d="M26.3672 46V18.6562H29.7656V46H26.3672ZM31.7188 46.0391V42.9922H33.7891C35.2734 42.9922 36.5234 42.6927 37.5391 42.0938C39.0234 41.1562 39.7656 39.776 39.7656 37.9531C39.7656 37.5104 39.7135 37.0938 39.6094 36.7031C39.1146 34.776 37.6432 33.8125 35.1953 33.8125H31.7188V30.7656H35.1953C35.638 30.7656 36.0547 30.7266 36.4453 30.6484C38.6068 30.2578 39.6875 28.9297 39.6875 26.6641C39.6875 25.8828 39.5052 25.1276 39.1406 24.3984C38.2552 22.6016 36.7057 21.7031 34.4922 21.7031H31.7188V18.6562H34.8828C37.2005 18.6562 39.0885 19.2943 40.5469 20.5703C42.2396 22.0547 43.0859 24.0208 43.0859 26.4688C43.0859 26.8073 43.0599 27.1589 43.0078 27.5234C42.7474 29.6068 41.875 31.1953 40.3906 32.2891C42.2135 33.6953 43.138 35.6484 43.1641 38.1484C43.1641 39.8411 42.7083 41.3646 41.7969 42.7188C40.2865 44.9323 38.0078 46.0391 34.9609 46.0391H31.7188Z" fill="#d8f3dc"/>
</g>
<defs>
<clipPath id="clip0_1_2">
<rect width="50" height="50" fill="white"/>
</clipPath>
</defs>
</svg>
